HIERARCHY
ROOT Hips
{
	OFFSET 0.00000 0.00000 0.00000
	CHANNELS 6 Xposition Yposition Zposition Zrotation Yrotation Xrotation 
	JOINT LHipJoint
	{
		OFFSET 0 0 0
		CHANNELS 3 Zrotation Yrotation Xrotation
		JOINT LeftUpLeg
		{
			OFFSET 1.55766 -1.60504 1.11378
			CHANNELS 3 Zrotation Yrotation Xrotation
			JOINT LeftLeg
			{
				OFFSET 2.29047 -6.29302 0.00000
				CHANNELS 3 Zrotation Yrotation Xrotation
				JOINT LeftFoot
				{
					OFFSET 2.52265 -6.93093 0.00000
					CHANNELS 3 Zrotation Yrotation Xrotation
					JOINT LeftToeBase
					{
						OFFSET 0.17633 -0.48446 2.02656
						CHANNELS 3 Zrotation Yrotation Xrotation
						End Site
						{
							OFFSET 0.00000 -0.00000 1.04989
						}
					}
				}
			}
		}
	}
	JOINT RHipJoint
	{
		OFFSET 0 0 0
		CHANNELS 3 Zrotation Yrotation Xrotation
		JOINT RightUpLeg
		{
			OFFSET -1.48599 -1.60504 1.11378
			CHANNELS 3 Zrotation Yrotation Xrotation
			JOINT RightLeg
			{
				OFFSET -2.27280 -6.24448 0.00000
				CHANNELS 3 Zrotation Yrotation Xrotation
				JOINT RightFoot
				{
					OFFSET -2.50834 -6.89161 0.00000
					CHANNELS 3 Zrotation Yrotation Xrotation
					JOINT RightToeBase
					{
						OFFSET -0.26967 -0.74090 2.08741
						CHANNELS 3 Zrotation Yrotation Xrotation
						End Site
						{
							OFFSET -0.00000 -0.00000 1.10614
						}
					}
				}
			}
		}
	}
	JOINT LowerBack
	{
		OFFSET 0 0 0
		CHANNELS 3 Zrotation Yrotation Xrotation
		JOINT Spine
		{
			OFFSET 0.06481 2.02437 -0.08472
			CHANNELS 3 Zrotation Yrotation Xrotation
			JOINT Spine1
			{
				OFFSET 0.00015 1.96711 0.18069
				CHANNELS 3 Zrotation Yrotation Xrotation
				JOINT Neck
				{
					OFFSET 0 0 0
					CHANNELS 3 Zrotation Yrotation Xrotation
					JOINT Neck1
					{
						OFFSET -0.29961 1.68293 -0.13041
						CHANNELS 3 Zrotation Yrotation Xrotation
						JOINT Head
						{
							OFFSET 0.59697 1.61501 -0.14669
							CHANNELS 3 Zrotation Yrotation Xrotation
							End Site
							{
								OFFSET 0.22973 1.74906 -0.10148
							}
						}
					}
				}
				JOINT LeftShoulder
				{
					OFFSET 0 0 0
					CHANNELS 3 Zrotation Yrotation Xrotation
					JOINT LeftArm
					{
						OFFSET 3.37968 1.02893 0.31147
						CHANNELS 3 Zrotation Yrotation Xrotation
						JOINT LeftForeArm
						{
							OFFSET 5.19807 -0.00000 -0.00000
							CHANNELS 3 Zrotation Yrotation Xrotation
							JOINT LeftHand
							{
								OFFSET 3.09370 -0.00000 -0.00000
								CHANNELS 3 Zrotation Yrotation Xrotation
								JOINT LeftFingerBase
								{
									OFFSET 0 0 0
									CHANNELS 3 Zrotation Yrotation Xrotation
									JOINT LeftHandIndex1
									{
										OFFSET 0.67263 -0.00000 -0.00000
										CHANNELS 3 Zrotation Yrotation Xrotation
										End Site
										{
											OFFSET 0.54229 -0.00000 -0.00000
										}
									}
								}
								JOINT LThumb
								{
									OFFSET 0 0 0
									CHANNELS 3 Zrotation Yrotation Xrotation
									End Site
									{
										OFFSET 0.55057 -0.00000 0.55057
									}
								}
							}
						}
					}
				}
				JOINT RightShoulder
				{
					OFFSET 0 0 0
					CHANNELS 3 Zrotation Yrotation Xrotation
					JOINT RightArm
					{
						OFFSET -3.38254 0.96355 -0.16120
						CHANNELS 3 Zrotation Yrotation Xrotation
						JOINT RightForeArm
						{
							OFFSET -5.45222 -0.00000 -0.00000
							CHANNELS 3 Zrotation Yrotation Xrotation
							JOINT RightHand
							{
								OFFSET -3.01284 -0.00000 -0.00000
								CHANNELS 3 Zrotation Yrotation Xrotation
								JOINT RightFingerBase
								{
									OFFSET 0 0 0
									CHANNELS 3 Zrotation Yrotation Xrotation
									JOINT RightHandIndex1
									{
										OFFSET -0.62230 -0.00000 -0.00000
										CHANNELS 3 Zrotation Yrotation Xrotation
										End Site
										{
											OFFSET -0.50171 -0.00000 -0.00000
										}
									}
								}
								JOINT RThumb
								{
									OFFSET 0 0 0
									CHANNELS 3 Zrotation Yrotation Xrotation
									End Site
									{
										OFFSET -0.50937 -0.00000 0.50937
									}
								}
							}
						}
					}
				}
			}
		}
	}
}
MOTION
Frames: 10
Frame Time: 0.021978
0.00 0.00 0.00 0 0 0 0 0 0 -21 0 0 0 0 0 0 0 0 0 0 0 0 0 0 21 0 0 0 0 0 0 0 0 0 0 0 0 0 0 0 0 0 0 0 0 0 0 -16 0 0 21 0 0 11 0 0 0 -8 0 0 0 0 0 0 0 0 0 0 0 0 0 0 0 0 0 0 0 0 8 0 0 0 0 0 0 0 0 0 0 0 0 0 0 0 0 0
0.00 0.00 0.00 -171.3860 -2.5824 -173.0770 0.0000 0.0000 0.0000 -1.8351 -11.9206 -60.8821 21.6256 19.9365 94.7578 -0.1267 -8.1948 -2.5985 1.9493 -8.7596 -25.0463 0.0000 0.0000 0.0000 34.6133 -2.1279 -15.9463 -1.7401 -8.3024 23.6365 0.0672 21.7909 -14.8370 -0.0799 1.8230 -5.0167 9.9860 2.9563 4.9480 0.7169 4.6499 -5.7517 -5.3216 1.5582 -8.1893 -29.2744 -7.7856 15.0183 44.7883 -18.2632 -12.9192 23.2435 -12.7994 1.9852 0.0000 -0.0000 0.0000 -89.2516 19.5186 32.7184 106.2607 -58.9770 -74.0338 -0.0000 0.0000 -36.2914 12.4668 -9.5244 -2.0951 -7.1250 0.0000 -0.0000 -10.3422 20.3026 6.2119 0.0000 -0.0000 0.0000 87.9725 -12.5862 36.7429 -109.7349 58.4760 -77.0035 0.0000 -0.0000 -3.5483 -20.7758 -4.0247 1.5253 7.1250 -0.0000 -0.0000 4.8250 -34.2530 1.2762
0.00 0.00 0.00 -171.6570 -0.8372 -172.8670 0.0000 0.0000 0.0000 -1.9278 -12.1433 -74.7884 25.6267 19.2234 106.6586 -0.1490 -8.5923 -2.4258 2.3039 -9.4724 -27.2844 0.0000 0.0000 0.0000 34.0909 -3.3475 -12.6401 -1.3083 -7.2456 20.4450 0.1845 22.9044 -14.7826 -0.0527 1.4815 -4.0746 9.7008 3.1642 5.1948 0.7068 4.9273 -6.2314 -5.2325 1.6399 -8.8359 -29.5011 -8.1529 13.5725 43.9012 -18.9575 -9.7452 21.5481 -12.7452 3.1913 0.0000 -0.0000 0.0000 -87.3385 18.4454 33.0661 123.0671 -55.4357 -88.1981 -0.0000 0.0000 -33.7701 17.5174 -8.4908 -2.6683 -7.1250 0.0000 -0.0000 -6.7548 21.1085 3.8956 0.0000 -0.0000 0.0000 88.3075 -8.3239 40.6858 -117.8764 56.8498 -83.8864 0.0000 -0.0000 -4.3918 -22.0878 -7.8051 3.1544 7.1250 -0.0000 -0.0000 4.0861 -38.3650 0.6690
0.00 0.00 0.00 -172.2420 4.3845 -172.2250 0.0000 0.0000 0.0000 -4.8267 -7.2573 -79.0211 21.7101 19.9297 95.0056 -0.0891 -5.5693 3.8972 1.9537 -8.7689 -25.0751 0.0000 0.0000 0.0000 32.0749 -0.9299 -7.0218 -1.0916 -6.6397 18.6523 -0.0564 23.2615 -16.7999 -0.1006 2.0450 -5.6301 9.1079 2.5738 5.7845 1.1063 4.8927 -6.3700 -4.5799 1.9418 -9.4706 -30.9725 -7.1524 10.0171 42.6145 -16.3410 -8.1954 21.4281 -10.8578 3.1119 0.0000 0.0000 0.0000 -85.6507 21.9673 31.6876 138.9119 -48.7015 -100.7472 -0.0000 0.0000 -36.2227 14.8292 -11.0768 -2.9119 -7.1250 0.0000 -0.0000 -8.6296 18.6036 5.4882 0.0000 0.0000 0.0000 88.0824 -5.0785 50.7495 -115.5916 57.3746 -81.9676 0.0000 -0.0000 -2.7416 -20.4991 -2.4901 0.9306 7.1250 -0.0000 -0.0000 4.9313 -32.6112 1.5010
0.00 0.00 0.00 -172.9250 5.8364 -171.7200 0.0000 0.0000 0.0000 -4.3603 -7.7357 -71.8670 15.4259 19.4908 76.5164 0.0970 -4.4459 9.1475 2.2102 -9.2909 -26.7096 0.0000 0.0000 0.0000 30.7051 1.5825 -3.4039 -0.9945 -6.3466 17.7935 -0.5256 20.6721 -18.4624 -0.2516 3.2278 -8.9135 8.6722 2.2468 4.4470 1.1440 4.2918 -6.4525 -4.1490 1.7233 -8.8769 -30.9495 -6.6591 9.0090 41.8869 -15.2701 -7.3115 21.1471 -10.1290 2.9535 -0.0000 -0.0000 0.0000 -84.9709 23.4206 33.1233 138.7590 -48.7882 -100.6323 -0.0000 0.0000 -35.8136 15.3749 -10.3153 -2.8189 -7.1250 0.0000 -0.0000 -8.2575 19.3482 5.1084 -0.0000 -0.0000 0.0000 88.0818 -6.1264 53.7572 -105.0353 59.1284 -72.9828 0.0000 -0.0000 -0.9000 -18.1451 -0.7743 0.2537 7.1250 -0.0000 -0.0000 6.6840 -30.7558 2.3400
0.00 0.00 0.00 -173.2880 7.0627 -171.0880 0.0000 0.0000 0.0000 -2.3945 -10.0481 -61.7991 9.7535 17.2689 58.6613 0.5111 -3.2213 15.0658 1.9226 -8.7029 -24.8702 0.0000 0.0000 0.0000 29.5672 3.0618 0.9523 -0.7018 -5.3548 14.9232 -0.6482 18.7340 -18.3259 -0.4461 4.2854 -11.8809 8.6780 2.1483 2.4539 1.1341 4.0350 -6.7784 -4.0339 1.6625 -8.0976 -31.4783 -9.6847 8.6905 41.1092 -14.4651 -3.8821 20.8995 -7.4633 3.8687 -0.0000 0.0000 0.0000 -84.9465 24.0477 35.1439 135.5567 -50.4928 -98.1916 -0.0000 0.0000 -33.3880 14.7760 -10.1498 -2.6612 -7.1250 0.0000 -0.0000 -8.6847 19.5519 5.3387 -0.0000 0.0000 0.0000 87.7649 -9.0653 55.0162 -89.8862 60.0000 -59.9014 0.0000 -0.0000 -2.5629 -18.8826 -2.4138 0.8253 7.1250 -0.0000 -0.0000 6.2278 -32.4884 1.9178
0.00 0.00 0.00 -173.5830 8.5936 -171.2600 0.0000 0.0000 0.0000 -1.1986 -13.4349 -50.0817 6.8547 15.2083 48.3225 -0.2533 -10.3145 9.3811 3.0861 -10.8332 -31.7193 0.0000 0.0000 0.0000 28.2710 4.1884 5.1381 -0.6692 -5.2313 14.5695 -0.8476 17.4840 -19.1909 -0.8601 5.9141 -16.5355 8.7557 2.2942 0.2469 1.0658 4.0161 -6.7248 -4.0170 1.7312 -6.7460 -31.3170 -9.2756 8.5278 41.0155 -13.8863 -3.1726 20.9588 -7.1213 3.8047 0.0000 0.0000 0.0000 -85.5084 23.9697 37.6759 130.1110 -52.9506 -93.9145 -0.0000 0.0000 -33.0064 15.0410 -11.0120 -2.9383 -7.1250 0.0000 -0.0000 -8.4819 18.6564 5.3821 0.0000 0.0000 0.0000 87.1318 -12.3980 54.7551 -70.6271 58.5333 -43.3052 0.0000 -0.0000 -0.6221 -19.6846 -2.3090 0.8258 7.1250 -0.0000 -0.0000 5.5740 -32.3984 1.7269
0.00 0.00 0.00 -175.9490 9.6026 -169.8810 0.0000 0.0000 0.0000 -7.7134 -10.6016 -44.7007 6.2288 14.6464 45.8932 -0.4157 -14.6667 -4.5696 2.6248 -10.0613 -29.1756 0.0000 0.0000 0.0000 24.4853 7.8927 7.0552 -1.0885 -6.6306 18.6254 -0.9215 15.3525 -18.9125 -1.7793 8.3903 -23.9061 6.5394 2.0363 -4.0126 0.2969 3.5135 -8.1052 -3.4054 1.7023 -5.9021 -30.9827 -9.0943 8.6805 40.5246 -14.0663 -0.6597 20.6864 -7.1256 4.4050 -0.0000 -0.0000 0.0000 -84.6483 23.6514 44.7610 115.1864 -57.4618 -81.6262 -0.0000 0.0000 -31.5005 17.5022 -10.5489 -3.3041 -7.1250 0.0000 -0.0000 -6.7509 18.9731 4.2185 -0.0000 -0.0000 0.0000 89.1675 -15.5056 44.8150 -30.4847 41.3053 -11.7283 0.0000 0.0000 2.1693 -16.5050 3.7046 -1.0968 7.1250 -0.0000 -0.0000 7.6611 -26.1041 3.5385
0.00 0.00 0.00 -176.2910 9.7547 -170.1170 0.0000 0.0000 0.0000 -10.4514 -9.7631 -40.3392 5.8417 14.2732 44.3431 -0.1761 -15.1846 -8.6088 2.2354 -9.3401 -26.8651 0.0000 0.0000 0.0000 23.2685 7.8388 7.6047 -1.4997 -7.7353 21.9128 -0.2909 15.1544 -13.5885 -2.1000 9.0712 -26.0184 6.6661 1.8967 -4.8355 0.1559 3.3920 -8.6389 -3.6048 1.6620 -6.0196 -31.2381 -9.2785 8.5993 39.7451 -14.7200 0.8000 20.2077 -7.4338 4.9990 -0.0000 -0.0000 0.0000 -83.4003 22.7085 50.2759 105.0789 -59.1232 -73.0203 -0.0000 0.0000 -26.8357 15.5643 -13.0877 -3.6090 -7.1250 0.0000 -0.0000 -8.1038 16.4989 5.5248 -0.0000 -0.0000 0.0000 92.0492 -12.2174 14.3136 -10.8163 18.0061 -1.7187 0.0000 0.0000 17.7850 -16.3812 -6.7124 1.9679 7.1250 -0.0000 -0.0000 8.7768 -36.8480 1.7768
0.00 0.00 0.00 -178.2620 12.2704 -166.7220 0.0000 0.0000 0.0000 -16.1502 -11.0207 -32.8388 4.2148 12.4408 37.3098 0.5905 -10.6455 -14.5840 2.1375 -9.1468 -26.2557 0.0000 0.0000 0.0000 17.4752 7.8297 5.2822 -1.7105 -8.2351 23.4303 0.9122 17.0505 2.2960 -1.9161 8.6892 -24.8278 3.9094 1.2682 -7.8931 -0.4573 2.6290 -9.4463 -2.6204 1.5273 -5.2926 -30.2084 -9.6063 6.7156 41.0889 -14.0797 -1.4939 20.6486 -6.9367 4.6021 -0.0000 -0.0000 0.0000 -81.0070 21.2546 53.8198 90.6874 -59.9982 -60.5953 -0.0000 0.0000 -29.0875 13.9435 -13.9957 -3.4363 -7.1250 0.0000 -0.0000 -9.2131 15.6998 6.4615 -0.0000 -0.0000 0.0000 83.9664 -20.7504 19.5022 -14.2610 23.1066 -2.9297 0.0000 0.0000 18.5558 -8.0813 -0.9769 0.1387 7.1250 -0.0000 -0.0000 14.5958 -30.7665 5.2269
